%FSLAX23Y23*%
%MOIN*%
G70*
G01*
G75*
%ADD10R,0.060X0.650*%
%ADD11R,1.000X0.320*%
%ADD12R,0.070X0.070*%
%ADD13R,0.063X0.071*%
%ADD14R,0.030X0.045*%
%ADD15R,0.090X0.170*%
%ADD16C,0.040*%
%ADD17C,0.010*%
%ADD18C,0.080*%
%ADD19C,0.150*%
%ADD20C,0.060*%
%ADD21C,0.050*%
%ADD22C,0.072*%
%ADD23C,0.070*%
%ADD24C,0.059*%
%ADD25C,0.059*%
%ADD26C,0.179*%
%ADD27R,0.059X0.059*%
%ADD28C,0.067*%
%ADD29C,0.067*%
%ADD30R,0.067X0.067*%
%ADD31C,0.187*%
%ADD32C,0.187*%
%ADD33C,0.060*%
%ADD34R,0.072X0.072*%
%ADD35R,0.113X0.113*%
%ADD36C,0.082*%
%ADD37C,0.113*%
%ADD38C,0.125*%
%ADD39C,0.129*%
%ADD40C,0.050*%
%ADD41C,0.008*%
%ADD42C,0.006*%
%ADD43R,0.312X0.837*%
D17*
X-313Y3743D02*
G03*
X-275Y3710I18J-18D01*
G01*
X27Y3860D02*
G03*
X27Y3860I-187J0D01*
G01*
X467D02*
G03*
X467Y3860I-187J0D01*
G01*
X127Y3743D02*
G03*
X165Y3710I18J-18D01*
G01*
X-1080Y2585D02*
Y3215D01*
X-1550D02*
X-1080D01*
X-1550Y2585D02*
X-1080D01*
X-550Y2260D02*
Y2585D01*
X-1020D02*
X-550D01*
X-1020Y3215D02*
X-550D01*
X-1020Y2585D02*
Y3215D01*
X-550D02*
Y3540D01*
X-1550Y2260D02*
X-550D01*
X-1550D02*
Y2585D01*
Y3540D02*
X-550D01*
X-1550Y3215D02*
Y3540D01*
X-245Y2865D02*
X-155D01*
X-245D02*
Y3035D01*
X-155Y2865D02*
Y3035D01*
X-494Y2689D02*
Y2722D01*
X-306D01*
Y2656D02*
Y2722D01*
X-494Y2656D02*
X-306D01*
X-494D02*
Y2689D01*
X-435Y2656D02*
Y2722D01*
X-1296Y1492D02*
X620D01*
X-1296D02*
Y1830D01*
X620Y1492D02*
Y1830D01*
X810Y4125D02*
Y4625D01*
X600Y4125D02*
Y4625D01*
Y4125D02*
X810D01*
X600Y4625D02*
X810D01*
X1440Y4125D02*
Y4625D01*
X1230Y4125D02*
Y4625D01*
Y4125D02*
X1440D01*
X1230Y4625D02*
X1440D01*
X1125Y4125D02*
Y4625D01*
X915Y4125D02*
Y4625D01*
Y4125D02*
X1125D01*
X915Y4625D02*
X1125D01*
X2385Y4125D02*
Y4625D01*
X2175Y4125D02*
Y4625D01*
Y4125D02*
X2385D01*
X2175Y4625D02*
X2385D01*
X2065Y4125D02*
Y4625D01*
X1855Y4125D02*
Y4625D01*
Y4125D02*
X2065D01*
X1855Y4625D02*
X2065D01*
X1755Y4125D02*
Y4625D01*
X1545Y4125D02*
Y4625D01*
Y4125D02*
X1755D01*
X1545Y4625D02*
X1755D01*
X1554Y2717D02*
Y3332D01*
X2099Y2717D02*
Y3332D01*
X1554Y2717D02*
X2099D01*
X2004Y3332D02*
X2099D01*
X1554D02*
X1649D01*
X2314Y2717D02*
Y3332D01*
X2859Y2717D02*
Y3332D01*
X2314Y2717D02*
X2859D01*
X2764Y3332D02*
X2859D01*
X2314D02*
X2409D01*
X3845Y4503D02*
X4434Y4503D01*
X3845Y3887D02*
Y4503D01*
X4434Y3887D02*
Y4503D01*
X3845Y3887D02*
X4434D01*
X4365Y4173D02*
X4432D01*
X4365D02*
Y4228D01*
X4432D01*
X2926Y1285D02*
X2927Y1874D01*
X2311D02*
X2927D01*
X2311Y1285D02*
X2927D01*
X2311D02*
Y1874D01*
X2597Y1287D02*
Y1354D01*
X2652D01*
Y1287D02*
Y1354D01*
X3845Y3178D02*
X4434Y3177D01*
X3845Y2562D02*
Y3178D01*
X4434Y2562D02*
Y3178D01*
X3845Y2562D02*
X4434D01*
X4365Y2848D02*
X4432D01*
X4365D02*
Y2903D01*
X4432D01*
X3845Y3834D02*
X4434Y3833D01*
X3845Y3218D02*
Y3834D01*
X4434Y3218D02*
Y3834D01*
X3845Y3218D02*
X4434D01*
X4365Y3504D02*
X4432D01*
X4365D02*
Y3559D01*
X4432D01*
X3595Y1285D02*
X3596Y1874D01*
X2980D02*
X3596D01*
X2980Y1285D02*
X3596D01*
X2980D02*
Y1874D01*
X3266Y1287D02*
Y1354D01*
X3321D01*
Y1287D02*
Y1354D01*
X3845Y2516D02*
X4434Y2515D01*
X3845Y1900D02*
Y2516D01*
X4434Y1900D02*
Y2516D01*
X3845Y1900D02*
X4434D01*
X4365Y2186D02*
X4432D01*
X4365D02*
Y2241D01*
X4432D01*
X4264Y1285D02*
X4265Y1874D01*
X3649D02*
X4265D01*
X3649Y1285D02*
X4265D01*
X3649D02*
Y1874D01*
X3935Y1287D02*
Y1354D01*
X3990D01*
Y1287D02*
Y1354D01*
X-65Y3325D02*
X40Y3430D01*
X240D02*
X345Y3325D01*
X347D01*
X-65Y3011D02*
Y3325D01*
X345Y3011D02*
Y3325D01*
X40Y3430D02*
X240D01*
X-65Y3011D02*
X345D01*
X3600Y3030D02*
X3705Y3135D01*
X3295D02*
X3400Y3030D01*
X3293Y3135D02*
X3295D01*
X3705D02*
Y3449D01*
X3295Y3135D02*
Y3449D01*
X3400Y3030D02*
X3600D01*
X3295Y3449D02*
X3705D01*
X-1161Y4129D02*
X-389D01*
X-708Y4515D02*
Y4633D01*
X-842Y4515D02*
X-708D01*
X-842D02*
Y4633D01*
X-586Y4373D02*
X-389D01*
X-1161D02*
X-964D01*
X-586D02*
Y4632D01*
X-964Y4373D02*
Y4627D01*
X-389Y4129D02*
Y4373D01*
X-959Y4632D02*
X-586D01*
X-1161Y4129D02*
Y4373D01*
X3015Y4125D02*
Y4625D01*
X2805Y4125D02*
Y4625D01*
Y4125D02*
X3015D01*
X2805Y4625D02*
X3015D01*
X2700Y4125D02*
Y4625D01*
X2490Y4125D02*
Y4625D01*
Y4125D02*
X2700D01*
X2490Y4625D02*
X2700D01*
X709Y3737D02*
Y3771D01*
X-932Y3147D02*
Y3107D01*
X-912Y3087D01*
X-892Y3107D01*
Y3147D01*
X-872Y3087D02*
Y3147D01*
X-842D01*
X-832Y3137D01*
Y3117D01*
X-842Y3107D01*
X-872D01*
X-852D02*
X-832Y3087D01*
X-812D02*
X-792D01*
X-802D01*
Y3147D01*
X-812Y3137D01*
X-182Y3125D02*
X-192Y3135D01*
X-212D01*
X-222Y3125D01*
Y3085D01*
X-212Y3075D01*
X-192D01*
X-182Y3085D01*
X-162Y3125D02*
X-152Y3135D01*
X-132D01*
X-122Y3125D01*
Y3115D01*
X-132Y3105D01*
X-142D01*
X-132D01*
X-122Y3095D01*
Y3085D01*
X-132Y3075D01*
X-152D01*
X-162Y3085D01*
X1304Y2236D02*
Y2296D01*
X1334D01*
X1344Y2286D01*
Y2266D01*
X1334Y2256D01*
X1304D01*
X1324D02*
X1344Y2236D01*
X1364Y2286D02*
X1374Y2296D01*
X1394D01*
X1404Y2286D01*
Y2276D01*
X1394Y2266D01*
X1384D01*
X1394D01*
X1404Y2256D01*
Y2246D01*
X1394Y2236D01*
X1374D01*
X1364Y2246D01*
X-251Y2534D02*
Y2594D01*
X-221D01*
X-211Y2584D01*
Y2564D01*
X-221Y2554D01*
X-251D01*
X-231D02*
X-211Y2534D01*
X-151D02*
X-191D01*
X-151Y2574D01*
Y2584D01*
X-161Y2594D01*
X-181D01*
X-191Y2584D01*
X-252Y2731D02*
Y2671D01*
X-222D01*
X-212Y2681D01*
Y2721D01*
X-222Y2731D01*
X-252D01*
X-192Y2671D02*
X-172D01*
X-182D01*
Y2731D01*
X-192Y2721D01*
X1932Y2296D02*
Y2236D01*
X1962D01*
X1972Y2246D01*
Y2286D01*
X1962Y2296D01*
X1932D01*
X2032Y2286D02*
X2022Y2296D01*
X2002D01*
X1992Y2286D01*
Y2276D01*
X2002Y2266D01*
X2022D01*
X2032Y2256D01*
Y2246D01*
X2022Y2236D01*
X2002D01*
X1992Y2246D01*
X2052Y2236D02*
X2072D01*
X2062D01*
Y2296D01*
X2052Y2286D01*
X-1398Y1808D02*
X-1418D01*
X-1408D01*
Y1758D01*
X-1418Y1748D01*
X-1428D01*
X-1438Y1758D01*
X-1378Y1748D02*
X-1358D01*
X-1368D01*
Y1808D01*
X-1378Y1798D01*
X-313Y4116D02*
X-353D01*
Y4086D01*
X-333D01*
X-353D01*
Y4056D01*
X-253D02*
X-293D01*
X-253Y4096D01*
Y4106D01*
X-263Y4116D01*
X-283D01*
X-293Y4106D01*
X1500Y3885D02*
Y3865D01*
Y3875D01*
X1550D01*
X1560Y3865D01*
Y3855D01*
X1550Y3845D01*
X1560Y3905D02*
X1500D01*
Y3935D01*
X1510Y3945D01*
X1530D01*
X1540Y3935D01*
Y3905D01*
X1560Y3965D02*
Y3985D01*
Y3975D01*
X1500D01*
X1510Y3965D01*
Y4015D02*
X1500Y4025D01*
Y4045D01*
X1510Y4055D01*
X1550D01*
X1560Y4045D01*
Y4025D01*
X1550Y4015D01*
X1510D01*
X1810Y3885D02*
Y3865D01*
Y3875D01*
X1860D01*
X1870Y3865D01*
Y3855D01*
X1860Y3845D01*
X1870Y3905D02*
X1810D01*
Y3935D01*
X1820Y3945D01*
X1840D01*
X1850Y3935D01*
Y3905D01*
X1870Y3965D02*
Y3985D01*
Y3975D01*
X1810D01*
X1820Y3965D01*
X1870Y4055D02*
Y4015D01*
X1830Y4055D01*
X1820D01*
X1810Y4045D01*
Y4025D01*
X1820Y4015D01*
X2104Y3885D02*
Y3865D01*
Y3875D01*
X2154D01*
X2164Y3865D01*
Y3855D01*
X2154Y3845D01*
X2164Y3905D02*
X2104D01*
Y3935D01*
X2114Y3945D01*
X2134D01*
X2144Y3935D01*
Y3905D01*
X2164Y3965D02*
Y3985D01*
Y3975D01*
X2104D01*
X2114Y3965D01*
X2164Y4045D02*
X2104D01*
X2134Y4015D01*
Y4055D01*
X3678Y1475D02*
Y1455D01*
Y1465D01*
X3728D01*
X3738Y1455D01*
Y1445D01*
X3728Y1435D01*
X3738Y1495D02*
X3678D01*
Y1525D01*
X3688Y1535D01*
X3708D01*
X3718Y1525D01*
Y1495D01*
X3678Y1595D02*
Y1555D01*
X3708D01*
X3698Y1575D01*
Y1585D01*
X3708Y1595D01*
X3728D01*
X3738Y1585D01*
Y1565D01*
X3728Y1555D01*
X4161Y1981D02*
X4141D01*
X4151D01*
Y1931D01*
X4141Y1921D01*
X4131D01*
X4121Y1931D01*
X4181Y1921D02*
Y1981D01*
X4211D01*
X4221Y1971D01*
Y1951D01*
X4211Y1941D01*
X4181D01*
X4241Y1981D02*
X4281D01*
Y1971D01*
X4241Y1931D01*
Y1921D01*
X3013Y1482D02*
Y1462D01*
Y1472D01*
X3063D01*
X3073Y1462D01*
Y1452D01*
X3063Y1442D01*
X3073Y1502D02*
X3013D01*
Y1532D01*
X3023Y1542D01*
X3043D01*
X3053Y1532D01*
Y1502D01*
X3013Y1602D02*
X3023Y1582D01*
X3043Y1562D01*
X3063D01*
X3073Y1572D01*
Y1592D01*
X3063Y1602D01*
X3053D01*
X3043Y1592D01*
Y1562D01*
X4153Y3301D02*
X4133D01*
X4143D01*
Y3251D01*
X4133Y3241D01*
X4123D01*
X4113Y3251D01*
X4173Y3241D02*
Y3301D01*
X4203D01*
X4213Y3291D01*
Y3271D01*
X4203Y3261D01*
X4173D01*
X4263Y3241D02*
Y3301D01*
X4233Y3271D01*
X4273D01*
X4153Y2652D02*
X4133D01*
X4143D01*
Y2602D01*
X4133Y2592D01*
X4123D01*
X4113Y2602D01*
X4173Y2592D02*
Y2652D01*
X4203D01*
X4213Y2642D01*
Y2622D01*
X4203Y2612D01*
X4173D01*
X4233Y2642D02*
X4243Y2652D01*
X4263D01*
X4273Y2642D01*
Y2632D01*
X4263Y2622D01*
X4253D01*
X4263D01*
X4273Y2612D01*
Y2602D01*
X4263Y2592D01*
X4243D01*
X4233Y2602D01*
X140Y4119D02*
X100D01*
Y4089D01*
X120D01*
X100D01*
Y4059D01*
X160D02*
X180D01*
X170D01*
Y4119D01*
X160Y4109D01*
X868Y3885D02*
Y3865D01*
Y3875D01*
X918D01*
X928Y3865D01*
Y3855D01*
X918Y3845D01*
X928Y3905D02*
X868D01*
Y3935D01*
X878Y3945D01*
X898D01*
X908Y3935D01*
Y3905D01*
X928Y3965D02*
Y3985D01*
Y3975D01*
X868D01*
X878Y3965D01*
X868Y4055D02*
Y4015D01*
X898D01*
X888Y4035D01*
Y4045D01*
X898Y4055D01*
X918D01*
X928Y4045D01*
Y4025D01*
X918Y4015D01*
X1178Y3885D02*
Y3865D01*
Y3875D01*
X1228D01*
X1238Y3865D01*
Y3855D01*
X1228Y3845D01*
X1238Y3905D02*
X1178D01*
Y3935D01*
X1188Y3945D01*
X1208D01*
X1218Y3935D01*
Y3905D01*
X1238Y3965D02*
Y3985D01*
Y3975D01*
X1178D01*
X1188Y3965D01*
X1178Y4055D02*
X1188Y4035D01*
X1208Y4015D01*
X1228D01*
X1238Y4025D01*
Y4045D01*
X1228Y4055D01*
X1218D01*
X1208Y4045D01*
Y4015D01*
X1106Y1862D02*
X1086D01*
X1096D01*
Y1812D01*
X1086Y1802D01*
X1076D01*
X1066Y1812D01*
X1166Y1802D02*
X1126D01*
X1166Y1842D01*
Y1852D01*
X1156Y1862D01*
X1136D01*
X1126Y1852D01*
X2327Y1482D02*
Y1462D01*
Y1472D01*
X2377D01*
X2387Y1462D01*
Y1452D01*
X2377Y1442D01*
X2387Y1502D02*
X2327D01*
Y1532D01*
X2337Y1542D01*
X2357D01*
X2367Y1532D01*
Y1502D01*
X2387Y1562D02*
Y1582D01*
Y1572D01*
X2327D01*
X2337Y1562D01*
X4166Y3977D02*
X4146D01*
X4156D01*
Y3927D01*
X4146Y3917D01*
X4136D01*
X4126Y3927D01*
X4186Y3917D02*
Y3977D01*
X4216D01*
X4226Y3967D01*
Y3947D01*
X4216Y3937D01*
X4186D01*
X4286Y3917D02*
X4246D01*
X4286Y3957D01*
Y3967D01*
X4276Y3977D01*
X4256D01*
X4246Y3967D01*
X548Y3885D02*
Y3865D01*
Y3875D01*
X598D01*
X608Y3865D01*
Y3855D01*
X598Y3845D01*
X608Y3905D02*
X548D01*
Y3935D01*
X558Y3945D01*
X578D01*
X588Y3935D01*
Y3905D01*
X608Y3965D02*
Y3985D01*
Y3975D01*
X548D01*
X558Y3965D01*
X548Y4015D02*
Y4055D01*
X558D01*
X598Y4015D01*
X608D01*
X1584Y1985D02*
Y2045D01*
X1614D01*
X1624Y2035D01*
Y2015D01*
X1614Y2005D01*
X1584D01*
X1604D02*
X1624Y1985D01*
X1644D02*
X1664D01*
X1654D01*
Y2045D01*
X1644Y2035D01*
X1443Y3233D02*
Y3213D01*
Y3223D01*
X1493D01*
X1503Y3213D01*
Y3203D01*
X1493Y3193D01*
X1503Y3253D02*
X1443D01*
Y3283D01*
X1453Y3293D01*
X1473D01*
X1483Y3283D01*
Y3253D01*
X1453Y3313D02*
X1443Y3323D01*
Y3343D01*
X1453Y3353D01*
X1463D01*
X1473Y3343D01*
X1483Y3353D01*
X1493D01*
X1503Y3343D01*
Y3323D01*
X1493Y3313D01*
X1483D01*
X1473Y3323D01*
X1463Y3313D01*
X1453D01*
X1473Y3323D02*
Y3343D01*
X2215Y3214D02*
Y3194D01*
Y3204D01*
X2265D01*
X2275Y3194D01*
Y3184D01*
X2265Y3174D01*
X2275Y3234D02*
X2215D01*
Y3264D01*
X2225Y3274D01*
X2245D01*
X2255Y3264D01*
Y3234D01*
X2265Y3294D02*
X2275Y3304D01*
Y3324D01*
X2265Y3334D01*
X2225D01*
X2215Y3324D01*
Y3304D01*
X2225Y3294D01*
X2235D01*
X2245Y3304D01*
Y3334D01*
X298Y2971D02*
X288Y2981D01*
X268D01*
X258Y2971D01*
Y2931D01*
X268Y2921D01*
X288D01*
X298Y2931D01*
X318Y2921D02*
X338D01*
X328D01*
Y2981D01*
X318Y2971D01*
X3338Y3579D02*
X3328Y3589D01*
X3308D01*
X3298Y3579D01*
Y3539D01*
X3308Y3529D01*
X3328D01*
X3338Y3539D01*
X3398Y3529D02*
X3358D01*
X3398Y3569D01*
Y3579D01*
X3388Y3589D01*
X3368D01*
X3358Y3579D01*
X-1193Y4491D02*
X-1213D01*
X-1203D01*
Y4441D01*
X-1213Y4431D01*
X-1223D01*
X-1233Y4441D01*
X-1173Y4431D02*
Y4491D01*
X-1143D01*
X-1133Y4481D01*
Y4461D01*
X-1143Y4451D01*
X-1173D01*
X-1113Y4431D02*
X-1093D01*
X-1103D01*
Y4491D01*
X-1113Y4481D01*
X-1063Y4431D02*
X-1043D01*
X-1053D01*
Y4491D01*
X-1063Y4481D01*
X2753Y3885D02*
Y3865D01*
Y3875D01*
X2803D01*
X2813Y3865D01*
Y3855D01*
X2803Y3845D01*
X2813Y3905D02*
X2753D01*
Y3935D01*
X2763Y3945D01*
X2783D01*
X2793Y3935D01*
Y3905D01*
X2813Y3965D02*
Y3985D01*
Y3975D01*
X2753D01*
X2763Y3965D01*
Y4015D02*
X2753Y4025D01*
Y4045D01*
X2763Y4055D01*
X2773D01*
X2783Y4045D01*
Y4035D01*
Y4045D01*
X2793Y4055D01*
X2803D01*
X2813Y4045D01*
Y4025D01*
X2803Y4015D01*
X2442Y3885D02*
Y3865D01*
Y3875D01*
X2492D01*
X2502Y3865D01*
Y3855D01*
X2492Y3845D01*
X2502Y3905D02*
X2442D01*
Y3935D01*
X2452Y3945D01*
X2472D01*
X2482Y3935D01*
Y3905D01*
X2502Y3965D02*
Y3985D01*
Y3975D01*
X2442D01*
X2452Y3965D01*
Y4015D02*
X2442Y4025D01*
Y4045D01*
X2452Y4055D01*
X2462D01*
X2472Y4045D01*
X2482Y4055D01*
X2492D01*
X2502Y4045D01*
Y4025D01*
X2492Y4015D01*
X2482D01*
X2472Y4025D01*
X2462Y4015D01*
X2452D01*
X2472Y4025D02*
Y4045D01*
X50Y1410D02*
X60Y1400D01*
X80D01*
X90Y1410D01*
Y1450D01*
X80Y1460D01*
X60D01*
X50Y1450D01*
Y1430D01*
X70D01*
X30Y1460D02*
Y1400D01*
X-10Y1460D01*
Y1400D01*
X-30D02*
Y1460D01*
X-60D01*
X-70Y1450D01*
Y1410D01*
X-60Y1400D01*
X-30D01*
X-180D02*
X-160D01*
X-150Y1410D01*
Y1450D01*
X-160Y1460D01*
X-180D01*
X-190Y1450D01*
Y1410D01*
X-180Y1400D01*
X-210Y1460D02*
Y1400D01*
X-250Y1460D01*
Y1400D01*
X-270D02*
Y1460D01*
X-310D01*
X-330Y1400D02*
Y1410D01*
X-350Y1430D01*
X-370Y1410D01*
Y1400D01*
X-350Y1430D02*
Y1460D01*
X-450D02*
Y1420D01*
X-470Y1400D01*
X-490Y1420D01*
Y1460D01*
Y1430D01*
X-450D01*
X-510Y1460D02*
Y1400D01*
X-540D01*
X-550Y1410D01*
Y1430D01*
X-540Y1440D01*
X-510D01*
X-530D02*
X-550Y1460D01*
X-610Y1400D02*
X-570D01*
Y1460D01*
X-610D01*
X-570Y1430D02*
X-590D01*
X-630Y1460D02*
Y1420D01*
X-650Y1400D01*
X-670Y1420D01*
Y1460D01*
Y1430D01*
X-630D01*
X2315Y2666D02*
X2305Y2676D01*
X2285D01*
X2275Y2666D01*
Y2626D01*
X2285Y2616D01*
X2305D01*
X2315Y2626D01*
Y2646D01*
X2295D01*
X2335Y2656D02*
Y2616D01*
Y2636D01*
X2345Y2646D01*
X2355Y2656D01*
X2365D01*
X2405D02*
X2425D01*
X2435Y2646D01*
Y2616D01*
X2405D01*
X2395Y2626D01*
X2405Y2636D01*
X2435D01*
X2455Y2676D02*
Y2616D01*
X2485D01*
X2495Y2626D01*
Y2636D01*
Y2646D01*
X2485Y2656D01*
X2455D01*
X2515Y2676D02*
Y2616D01*
X2545D01*
X2555Y2626D01*
Y2636D01*
Y2646D01*
X2545Y2656D01*
X2515D01*
X2605Y2616D02*
X2585D01*
X2575Y2626D01*
Y2646D01*
X2585Y2656D01*
X2605D01*
X2615Y2646D01*
Y2636D01*
X2575D01*
X2635Y2656D02*
Y2616D01*
Y2636D01*
X2645Y2646D01*
X2655Y2656D01*
X2665D01*
X2755Y2676D02*
X2775D01*
X2765D01*
Y2616D01*
X2755D01*
X2775D01*
X2845Y2666D02*
X2835Y2676D01*
X2815D01*
X2805Y2666D01*
Y2626D01*
X2815Y2616D01*
X2835D01*
X2845Y2626D01*
X2865Y2676D02*
Y2616D01*
X2895D01*
X2905Y2626D01*
Y2666D01*
X2895Y2676D01*
X2865D01*
X1627Y2666D02*
X1617Y2676D01*
X1597D01*
X1587Y2666D01*
Y2626D01*
X1597Y2616D01*
X1617D01*
X1627Y2626D01*
X1657Y2656D02*
X1677D01*
X1687Y2646D01*
Y2616D01*
X1657D01*
X1647Y2626D01*
X1657Y2636D01*
X1687D01*
X1707Y2656D02*
Y2616D01*
Y2636D01*
X1717Y2646D01*
X1727Y2656D01*
X1737D01*
X1777Y2666D02*
Y2656D01*
X1767D01*
X1787D01*
X1777D01*
Y2626D01*
X1787Y2616D01*
X1877Y2676D02*
X1897D01*
X1887D01*
Y2616D01*
X1877D01*
X1897D01*
X1967Y2666D02*
X1957Y2676D01*
X1937D01*
X1927Y2666D01*
Y2626D01*
X1937Y2616D01*
X1957D01*
X1967Y2626D01*
X1987Y2676D02*
Y2616D01*
X2017D01*
X2027Y2626D01*
Y2666D01*
X2017Y2676D01*
X1987D01*
X-247Y3556D02*
X-227D01*
X-237D01*
Y3616D01*
X-247Y3606D01*
X-197D02*
X-187Y3616D01*
X-167D01*
X-157Y3606D01*
Y3566D01*
X-167Y3556D01*
X-187D01*
X-197Y3566D01*
Y3606D01*
X-137Y3556D02*
Y3596D01*
X-117Y3616D01*
X-97Y3596D01*
Y3556D01*
Y3586D01*
X-137D01*
X-67Y3546D02*
X-57Y3556D01*
Y3566D01*
X-67D01*
Y3556D01*
X-57D01*
X-67Y3546D01*
X-77Y3536D01*
X43Y3556D02*
X63D01*
X53D01*
Y3616D01*
X43Y3606D01*
X93D02*
X103Y3616D01*
X123D01*
X133Y3606D01*
Y3566D01*
X123Y3556D01*
X103D01*
X93Y3566D01*
Y3606D01*
X153D02*
X163Y3616D01*
X183D01*
X193Y3606D01*
Y3566D01*
X183Y3556D01*
X163D01*
X153Y3566D01*
Y3606D01*
X213Y3616D02*
Y3576D01*
X233Y3556D01*
X253Y3576D01*
Y3616D01*
X273D02*
Y3556D01*
X303D01*
X313Y3566D01*
Y3606D01*
X303Y3616D01*
X273D01*
X373Y3606D02*
X363Y3616D01*
X343D01*
X333Y3606D01*
Y3566D01*
X343Y3556D01*
X363D01*
X373Y3566D01*
X1210Y2132D02*
X1200Y2142D01*
X1180D01*
X1170Y2132D01*
Y2092D01*
X1180Y2082D01*
X1200D01*
X1210Y2092D01*
X1230Y2082D02*
Y2122D01*
X1250Y2142D01*
X1270Y2122D01*
Y2082D01*
Y2112D01*
X1230D01*
X1290Y2082D02*
Y2142D01*
X1330Y2082D01*
Y2142D01*
X1450Y2132D02*
X1440Y2142D01*
X1420D01*
X1410Y2132D01*
Y2122D01*
X1420Y2112D01*
X1440D01*
X1450Y2102D01*
Y2092D01*
X1440Y2082D01*
X1420D01*
X1410Y2092D01*
X1480Y2132D02*
Y2122D01*
X1470D01*
X1490D01*
X1480D01*
Y2092D01*
X1490Y2082D01*
X1520Y2122D02*
Y2082D01*
Y2102D01*
X1530Y2112D01*
X1540Y2122D01*
X1550D01*
X1590D02*
X1610D01*
X1620Y2112D01*
Y2082D01*
X1590D01*
X1580Y2092D01*
X1590Y2102D01*
X1620D01*
X1640Y2082D02*
X1660D01*
X1650D01*
Y2122D01*
X1640D01*
X1710Y2062D02*
X1720D01*
X1730Y2072D01*
Y2122D01*
X1700D01*
X1690Y2112D01*
Y2092D01*
X1700Y2082D01*
X1730D01*
X1750Y2142D02*
Y2082D01*
Y2112D01*
X1760Y2122D01*
X1780D01*
X1790Y2112D01*
Y2082D01*
X1820Y2132D02*
Y2122D01*
X1810D01*
X1830D01*
X1820D01*
Y2092D01*
X1830Y2082D01*
X1860Y2112D02*
X1900D01*
X1920Y2142D02*
X1960D01*
X1940D01*
Y2082D01*
X1980Y2142D02*
Y2082D01*
Y2112D01*
X1990Y2122D01*
X2010D01*
X2020Y2112D01*
Y2082D01*
X2040Y2122D02*
Y2082D01*
Y2102D01*
X2050Y2112D01*
X2060Y2122D01*
X2070D01*
X2100D02*
Y2092D01*
X2110Y2082D01*
X2140D01*
Y2122D01*
X3644Y3560D02*
X3634Y3570D01*
X3614D01*
X3604Y3560D01*
Y3520D01*
X3614Y3510D01*
X3634D01*
X3644Y3520D01*
X3674Y3550D02*
X3694D01*
X3704Y3540D01*
Y3510D01*
X3674D01*
X3664Y3520D01*
X3674Y3530D01*
X3704D01*
X3724Y3550D02*
Y3510D01*
Y3530D01*
X3734Y3540D01*
X3744Y3550D01*
X3754D01*
X3794Y3560D02*
Y3550D01*
X3784D01*
X3804D01*
X3794D01*
Y3520D01*
X3804Y3510D01*
X3457Y2896D02*
X3447Y2906D01*
X3427D01*
X3417Y2896D01*
Y2856D01*
X3427Y2846D01*
X3447D01*
X3457Y2856D01*
Y2876D01*
X3437D01*
X3477Y2886D02*
Y2846D01*
Y2866D01*
X3487Y2876D01*
X3497Y2886D01*
X3507D01*
X3547D02*
X3567D01*
X3577Y2876D01*
Y2846D01*
X3547D01*
X3537Y2856D01*
X3547Y2866D01*
X3577D01*
X3597Y2906D02*
Y2846D01*
X3627D01*
X3637Y2856D01*
Y2866D01*
Y2876D01*
X3627Y2886D01*
X3597D01*
X3657Y2906D02*
Y2846D01*
X3687D01*
X3697Y2856D01*
Y2866D01*
Y2876D01*
X3687Y2886D01*
X3657D01*
X3747Y2846D02*
X3727D01*
X3717Y2856D01*
Y2876D01*
X3727Y2886D01*
X3747D01*
X3757Y2876D01*
Y2866D01*
X3717D01*
X3777Y2886D02*
Y2846D01*
Y2866D01*
X3787Y2876D01*
X3797Y2886D01*
X3807D01*
X-1038Y1934D02*
Y1994D01*
X-1018Y1974D01*
X-998Y1994D01*
Y1934D01*
X-968D02*
X-948D01*
X-938Y1944D01*
Y1964D01*
X-948Y1974D01*
X-968D01*
X-978Y1964D01*
Y1944D01*
X-968Y1934D01*
X-908Y1984D02*
Y1974D01*
X-918D01*
X-898D01*
X-908D01*
Y1944D01*
X-898Y1934D01*
X-868D02*
X-848D01*
X-858D01*
Y1974D01*
X-868D01*
X-808Y1934D02*
X-788D01*
X-778Y1944D01*
Y1964D01*
X-788Y1974D01*
X-808D01*
X-818Y1964D01*
Y1944D01*
X-808Y1934D01*
X-758D02*
Y1974D01*
X-728D01*
X-718Y1964D01*
Y1934D01*
X-598Y1984D02*
X-608Y1994D01*
X-628D01*
X-638Y1984D01*
Y1944D01*
X-628Y1934D01*
X-608D01*
X-598Y1944D01*
X-568Y1974D02*
X-548D01*
X-538Y1964D01*
Y1934D01*
X-568D01*
X-578Y1944D01*
X-568Y1954D01*
X-538D01*
X-518Y1974D02*
Y1934D01*
Y1954D01*
X-508Y1964D01*
X-498Y1974D01*
X-488D01*
X-418Y1994D02*
Y1934D01*
X-448D01*
X-458Y1944D01*
Y1964D01*
X-448Y1974D01*
X-418D01*
X-298Y1994D02*
X-318D01*
X-308D01*
Y1944D01*
X-318Y1934D01*
X-328D01*
X-338Y1944D01*
X-278Y1984D02*
X-268Y1994D01*
X-248D01*
X-238Y1984D01*
Y1974D01*
X-248Y1964D01*
X-258D01*
X-248D01*
X-238Y1954D01*
Y1944D01*
X-248Y1934D01*
X-268D01*
X-278Y1944D01*
X-118Y1984D02*
X-128Y1994D01*
X-148D01*
X-158Y1984D01*
Y1944D01*
X-148Y1934D01*
X-128D01*
X-118Y1944D01*
X-88Y1934D02*
X-68D01*
X-58Y1944D01*
Y1964D01*
X-68Y1974D01*
X-88D01*
X-98Y1964D01*
Y1944D01*
X-88Y1934D01*
X-38D02*
Y1974D01*
X-8D01*
X2Y1964D01*
Y1934D01*
X22D02*
Y1974D01*
X52D01*
X62Y1964D01*
Y1934D01*
X112D02*
X92D01*
X82Y1944D01*
Y1964D01*
X92Y1974D01*
X112D01*
X122Y1964D01*
Y1954D01*
X82D01*
X182Y1974D02*
X152D01*
X142Y1964D01*
Y1944D01*
X152Y1934D01*
X182D01*
X212Y1984D02*
Y1974D01*
X202D01*
X222D01*
X212D01*
Y1944D01*
X222Y1934D01*
X262D02*
X282D01*
X292Y1944D01*
Y1964D01*
X282Y1974D01*
X262D01*
X252Y1964D01*
Y1944D01*
X262Y1934D01*
X312Y1974D02*
Y1934D01*
Y1954D01*
X322Y1964D01*
X332Y1974D01*
X342D01*
X2361Y1985D02*
X2401Y1925D01*
Y1985D02*
X2361Y1925D01*
X2521Y1975D02*
X2511Y1985D01*
X2491D01*
X2481Y1975D01*
Y1935D01*
X2491Y1925D01*
X2511D01*
X2521Y1935D01*
X2551Y1925D02*
X2571D01*
X2581Y1935D01*
Y1955D01*
X2571Y1965D01*
X2551D01*
X2541Y1955D01*
Y1935D01*
X2551Y1925D01*
X2601D02*
Y1965D01*
X2631D01*
X2641Y1955D01*
Y1925D01*
X2671Y1975D02*
Y1965D01*
X2661D01*
X2681D01*
X2671D01*
Y1935D01*
X2681Y1925D01*
X2711Y1965D02*
Y1925D01*
Y1945D01*
X2721Y1955D01*
X2731Y1965D01*
X2741D01*
X2781Y1925D02*
X2801D01*
X2811Y1935D01*
Y1955D01*
X2801Y1965D01*
X2781D01*
X2771Y1955D01*
Y1935D01*
X2781Y1925D01*
X2831D02*
X2851D01*
X2841D01*
Y1985D01*
X2831D01*
X3294Y4200D02*
X3334Y4140D01*
Y4200D02*
X3294Y4140D01*
X3454Y4200D02*
X3414D01*
Y4140D01*
X3454D01*
X3414Y4170D02*
X3434D01*
X3474Y4140D02*
Y4180D01*
X3504D01*
X3514Y4170D01*
Y4140D01*
X3574Y4180D02*
X3544D01*
X3534Y4170D01*
Y4150D01*
X3544Y4140D01*
X3574D01*
X3604D02*
X3624D01*
X3634Y4150D01*
Y4170D01*
X3624Y4180D01*
X3604D01*
X3594Y4170D01*
Y4150D01*
X3604Y4140D01*
X3694Y4200D02*
Y4140D01*
X3664D01*
X3654Y4150D01*
Y4170D01*
X3664Y4180D01*
X3694D01*
X3744Y4140D02*
X3724D01*
X3714Y4150D01*
Y4170D01*
X3724Y4180D01*
X3744D01*
X3754Y4170D01*
Y4160D01*
X3714D01*
X3774Y4180D02*
Y4140D01*
Y4160D01*
X3784Y4170D01*
X3794Y4180D01*
X3804D01*
X3027Y1985D02*
Y1975D01*
X3047Y1955D01*
X3067Y1975D01*
Y1985D01*
X3047Y1955D02*
Y1925D01*
X3187Y1975D02*
X3177Y1985D01*
X3157D01*
X3147Y1975D01*
Y1935D01*
X3157Y1925D01*
X3177D01*
X3187Y1935D01*
X3217Y1925D02*
X3237D01*
X3247Y1935D01*
Y1955D01*
X3237Y1965D01*
X3217D01*
X3207Y1955D01*
Y1935D01*
X3217Y1925D01*
X3267D02*
Y1965D01*
X3297D01*
X3307Y1955D01*
Y1925D01*
X3337Y1975D02*
Y1965D01*
X3327D01*
X3347D01*
X3337D01*
Y1935D01*
X3347Y1925D01*
X3377Y1965D02*
Y1925D01*
Y1945D01*
X3387Y1955D01*
X3397Y1965D01*
X3407D01*
X3447Y1925D02*
X3467D01*
X3477Y1935D01*
Y1955D01*
X3467Y1965D01*
X3447D01*
X3437Y1955D01*
Y1935D01*
X3447Y1925D01*
X3497D02*
X3517D01*
X3507D01*
Y1985D01*
X3497D01*
X3284Y2297D02*
Y2287D01*
X3304Y2267D01*
X3324Y2287D01*
Y2297D01*
X3304Y2267D02*
Y2237D01*
X3444Y2297D02*
X3404D01*
Y2237D01*
X3444D01*
X3404Y2267D02*
X3424D01*
X3464Y2237D02*
Y2277D01*
X3494D01*
X3504Y2267D01*
Y2237D01*
X3564Y2277D02*
X3534D01*
X3524Y2267D01*
Y2247D01*
X3534Y2237D01*
X3564D01*
X3594D02*
X3614D01*
X3624Y2247D01*
Y2267D01*
X3614Y2277D01*
X3594D01*
X3584Y2267D01*
Y2247D01*
X3594Y2237D01*
X3684Y2297D02*
Y2237D01*
X3654D01*
X3644Y2247D01*
Y2267D01*
X3654Y2277D01*
X3684D01*
X3734Y2237D02*
X3714D01*
X3704Y2247D01*
Y2267D01*
X3714Y2277D01*
X3734D01*
X3744Y2267D01*
Y2257D01*
X3704D01*
X3764Y2277D02*
Y2237D01*
Y2257D01*
X3774Y2267D01*
X3784Y2277D01*
X3794D01*
X439Y3685D02*
X479D01*
X459Y3705D02*
Y3665D01*
X499Y3705D02*
X509Y3715D01*
X529D01*
X539Y3705D01*
Y3695D01*
X529Y3685D01*
X519D01*
X529D01*
X539Y3675D01*
Y3665D01*
X529Y3655D01*
X509D01*
X499Y3665D01*
X559Y3705D02*
X569Y3715D01*
X589D01*
X599Y3705D01*
Y3665D01*
X589Y3655D01*
X569D01*
X559Y3665D01*
Y3705D01*
X619Y3715D02*
Y3675D01*
X639Y3655D01*
X659Y3675D01*
Y3715D01*
X679Y3685D02*
X719D01*
X779Y3715D02*
X739D01*
Y3685D01*
X759Y3695D01*
X769D01*
X779Y3685D01*
Y3665D01*
X769Y3655D01*
X749D01*
X739Y3665D01*
X799D02*
X809Y3655D01*
X829D01*
X839Y3665D01*
Y3705D01*
X829Y3715D01*
X809D01*
X799Y3705D01*
Y3695D01*
X809Y3685D01*
X839D01*
X859Y3715D02*
Y3675D01*
X879Y3655D01*
X899Y3675D01*
Y3715D01*
X330Y3405D02*
X303D01*
X317Y3392D02*
Y3418D01*
X3310Y3055D02*
X3337D01*
X3323Y3068D02*
Y3042D01*
X3674Y1925D02*
Y1965D01*
X3694Y1985D01*
X3714Y1965D01*
Y1925D01*
Y1955D01*
X3674D01*
X3774Y1975D02*
X3764Y1985D01*
X3744D01*
X3734Y1975D01*
Y1935D01*
X3744Y1925D01*
X3764D01*
X3774Y1935D01*
X3834Y1975D02*
X3824Y1985D01*
X3804D01*
X3794Y1975D01*
Y1935D01*
X3804Y1925D01*
X3824D01*
X3834Y1935D01*
D33*
X-925Y2720D02*
D03*
D41*
X718Y1199D02*
G03*
X719Y1218I-9J10D01*
G01*
X641Y1190D02*
G03*
X653Y1174I16J0D01*
G01*
X543Y1166D02*
G03*
X570Y1194I0J27D01*
G01*
X598Y1367D02*
G03*
X570Y1339I0J-27D01*
G01*
X-1395Y1218D02*
G03*
X-1394Y1199I10J-9D01*
G01*
X-1329Y1174D02*
G03*
X-1317Y1190I-4J16D01*
G01*
X-1246Y1194D02*
G03*
X-1219Y1166I27J0D01*
G01*
X-1246Y1339D02*
G03*
X-1273Y1367I-27J0D01*
G01*
X1306Y1070D02*
G03*
X1334Y1043I27J0D01*
G01*
X1306Y1251D02*
G03*
X1279Y1279I-27J0D01*
G01*
X1976Y1043D02*
G03*
X2004Y1070I0J27D01*
G01*
X2031Y1279D02*
G03*
X2004Y1251I0J-27D01*
G01*
X1457Y2213D02*
Y2315D01*
X1661Y2213D02*
Y2315D01*
X1457D02*
X1531D01*
X1587D02*
X1661D01*
X1457Y2213D02*
X1531D01*
X1587D02*
X1661D01*
X-502Y2518D02*
Y2620D01*
X-298Y2518D02*
Y2620D01*
X-502D02*
X-428D01*
X-372D02*
X-298D01*
X-502Y2518D02*
X-428D01*
X-372D02*
X-298D01*
X1697Y2213D02*
Y2315D01*
Y2213D02*
X1882D01*
X1697Y2315D02*
X1882D01*
X682Y1174D02*
X719Y1199D01*
X653Y1174D02*
X682D01*
X627Y1367D02*
X641Y1189D01*
X685Y1218D02*
X719D01*
X685D02*
Y1367D01*
X570Y1194D02*
Y1339D01*
X-1219Y1166D02*
X543D01*
X-1395Y1199D02*
X-1358Y1174D01*
X-1329D01*
X-1317Y1189D02*
X-1302Y1367D01*
X-1395Y1218D02*
X-1360D01*
Y1367D01*
X-1246Y1194D02*
Y1339D01*
X920Y1367D02*
Y1830D01*
X-1596Y1367D02*
X920D01*
X-1596D02*
Y1830D01*
X920D01*
X1306Y1070D02*
Y1251D01*
X2004Y1070D02*
Y1251D01*
X1931Y1397D02*
Y1767D01*
X1049Y1279D02*
X2261D01*
X1379Y1397D02*
Y1767D01*
X1049Y1767D02*
X2261D01*
X1334Y1043D02*
X1976D01*
X2261Y1279D02*
Y1767D01*
X1049Y1279D02*
Y1767D01*
Y1397D02*
X2261D01*
X1708Y1849D02*
X1782D01*
X1578D02*
X1652D01*
X1708Y1951D02*
X1782D01*
X1578D02*
X1652D01*
X1782Y1849D02*
Y1951D01*
X1578Y1849D02*
Y1951D01*
D42*
X536Y1460D02*
X526Y1450D01*
X507D01*
X497Y1460D01*
Y1470D01*
X507Y1480D01*
X517D01*
X507D01*
X497Y1490D01*
Y1500D01*
X507Y1510D01*
X526D01*
X536Y1500D01*
X438Y1450D02*
X477D01*
Y1480D01*
X458Y1470D01*
X448D01*
X438Y1480D01*
Y1500D01*
X448Y1510D01*
X467D01*
X477Y1500D01*
X-1103Y1450D02*
X-1083Y1460D01*
X-1064Y1480D01*
Y1500D01*
X-1074Y1510D01*
X-1093D01*
X-1103Y1500D01*
Y1490D01*
X-1093Y1480D01*
X-1064D01*
X-1123Y1450D02*
X-1162D01*
Y1460D01*
X-1123Y1500D01*
Y1510D01*
X-1114Y1859D02*
X-1124Y1849D01*
X-1143D01*
X-1153Y1859D01*
Y1868D01*
X-1143Y1878D01*
X-1133D01*
X-1143D01*
X-1153Y1888D01*
Y1898D01*
X-1143Y1908D01*
X-1124D01*
X-1114Y1898D01*
X-1202Y1908D02*
Y1849D01*
X-1173Y1878D01*
X-1212D01*
X417Y1908D02*
X457D01*
X417Y1868D01*
Y1859D01*
X427Y1849D01*
X447D01*
X457Y1859D01*
D43*
X-1399Y4089D02*
D03*
M02*
