%FSLAX23Y23*%
%MOIN*%
G70*
G01*
G75*
G04 Layer_Physical_Order=2*
%ADD10R,0.060X0.650*%
%ADD11R,1.000X0.320*%
%ADD12R,0.070X0.070*%
%ADD13R,0.063X0.071*%
%ADD14R,0.030X0.045*%
%ADD15R,0.090X0.170*%
%ADD16C,0.040*%
%ADD17C,0.010*%
%ADD18C,0.080*%
%ADD19C,0.150*%
%ADD20C,0.060*%
%ADD21C,0.050*%
%ADD22C,0.072*%
%ADD23C,0.070*%
%ADD24C,0.059*%
%ADD25C,0.059*%
%ADD26C,0.179*%
%ADD27R,0.059X0.059*%
%ADD28C,0.067*%
%ADD29C,0.067*%
%ADD30R,0.067X0.067*%
%ADD31C,0.187*%
%ADD32C,0.187*%
%ADD33C,0.060*%
%ADD34R,0.072X0.072*%
%ADD35R,0.113X0.113*%
%ADD36C,0.082*%
%ADD37C,0.113*%
%ADD38C,0.125*%
%ADD39C,0.129*%
%ADD40C,0.050*%
D12*
X-920Y2800D02*
D03*
Y3000D02*
D03*
D16*
X2995Y3700D02*
X3165Y3867D01*
X4040Y3703D02*
X4112Y3631D01*
X4040Y3047D02*
Y3125D01*
X3165Y3867D02*
X3626D01*
X3667Y3814D01*
X4040Y3125D02*
X4112Y3197D01*
Y3631D01*
D17*
X4123Y2440D02*
X4184Y2501D01*
X3667Y3814D02*
X3669Y3812D01*
X4016Y1679D02*
X4089Y1606D01*
X4123Y2035D02*
Y2440D01*
Y2035D02*
X4280Y1878D01*
Y1698D02*
Y1878D01*
X4188Y1606D02*
X4280Y1698D01*
X4089Y1606D02*
X4188D01*
X691Y2526D02*
X899Y2734D01*
X293Y2882D02*
X632D01*
X-832Y1930D02*
Y1960D01*
X-396Y2396D01*
X-193D01*
X293Y2882D01*
X899Y2871D02*
X1576Y3548D01*
X899Y2734D02*
Y2871D01*
X-213Y1616D02*
Y1704D01*
X979Y1434D02*
Y1454D01*
X205Y1434D02*
X979D01*
X-168Y1471D02*
X-141Y1444D01*
X195D01*
X3393Y1606D02*
X3465Y1679D01*
X1020Y1495D02*
X1056Y1459D01*
X918D02*
X954Y1495D01*
X187Y1484D02*
Y1554D01*
X1056Y1459D02*
X1240D01*
X212D02*
X918D01*
X954Y1495D02*
X1020D01*
X3020Y1587D02*
X3060Y1627D01*
X1026Y1522D02*
X1064Y1484D01*
X187Y1616D02*
Y1704D01*
X902Y1484D02*
X940Y1522D01*
X1064Y1484D02*
X2390D01*
X280D02*
X902D01*
X940Y1522D02*
X1026D01*
X979Y1604D02*
X982D01*
X883Y1508D02*
X979Y1604D01*
X432Y1508D02*
X883D01*
X387Y1554D02*
X432Y1508D01*
X195Y1444D02*
X205Y1434D01*
X1240Y1459D02*
X1268Y1431D01*
X187Y1484D02*
X212Y1459D01*
X1268Y1431D02*
X2943D01*
X2741Y1852D02*
X2796Y1797D01*
X1585Y1830D02*
X1607Y1852D01*
X873Y2455D02*
X999Y2581D01*
X-347Y2294D02*
X-302D01*
X-863Y1779D02*
X-347Y2294D01*
X999Y2581D02*
Y2936D01*
X1585Y3522D01*
X845Y2211D02*
X1026Y2392D01*
Y2922D01*
X1027Y2923D01*
X-57Y1908D02*
Y2211D01*
X4040Y3047D02*
X4111Y2976D01*
X4040Y2385D02*
X4111Y2456D01*
X4040Y2385D02*
X4092Y2333D01*
X4083Y1730D02*
X4134Y1679D01*
X1504Y2982D02*
X1754Y3232D01*
X1504Y2743D02*
Y2982D01*
X-830Y1554D02*
Y1596D01*
Y1554D02*
X-813D01*
X-863Y1629D02*
X-830Y1596D01*
X-1128Y2692D02*
X-920Y2900D01*
X-863Y1629D02*
Y1717D01*
X3267Y3282D02*
X3329Y3344D01*
X2564Y3332D02*
X2614Y3282D01*
X-563Y1504D02*
X-513Y1554D01*
X-913D02*
X-863Y1504D01*
X2626Y1627D02*
X2678Y1679D01*
X437Y1779D02*
X644D01*
X2358Y1762D02*
X2442Y1679D01*
X387Y1704D02*
Y1803D01*
Y1961D02*
X3183D01*
X237Y1779D02*
Y1811D01*
X4038Y4136D02*
X4040D01*
X3199Y3634D02*
X3200Y3635D01*
X729Y3000D02*
X878D01*
X53Y2075D02*
X729Y2751D01*
X-63Y1779D02*
X53Y1895D01*
X3304Y3628D02*
X3310Y3634D01*
X-113Y1704D02*
Y1803D01*
X3981Y2090D02*
X4040Y2149D01*
X2044Y2217D02*
X3398D01*
X-163Y2156D02*
Y2196D01*
X-163Y1779D02*
Y1884D01*
X-263Y1779D02*
Y2121D01*
X2624Y1732D02*
X3009D01*
X2560Y1797D02*
X2624Y1732D01*
X-363Y1779D02*
Y1950D01*
X4023Y4373D02*
X4040D01*
X4038Y4254D02*
X4040D01*
X2724Y1607D02*
X2796Y1679D01*
X437Y1629D02*
X533D01*
X3385Y1877D02*
X3465Y1797D01*
X237Y1629D02*
Y1717D01*
X3229Y1679D02*
X3295Y1745D01*
X137Y1629D02*
Y1717D01*
X4040Y4011D02*
Y4018D01*
X-13Y1554D02*
Y1642D01*
X3252Y3574D02*
X3255Y3577D01*
X-118Y1870D02*
X-103Y1885D01*
X3359Y3514D02*
Y3577D01*
X-113Y1554D02*
Y1642D01*
X-163Y1629D02*
Y1717D01*
X-208Y2045D02*
X-188Y2065D01*
X-258Y1508D02*
X-213Y1554D01*
X-408Y1761D02*
Y2125D01*
X378Y2107D02*
X3423D01*
X177Y1906D02*
X378Y2107D01*
X-163Y1965D02*
X-148Y1980D01*
X1632Y1797D02*
X2442D01*
X413Y1882D02*
X450Y1845D01*
X-313Y1554D02*
Y1642D01*
X4040Y3218D02*
Y3349D01*
X4040Y2693D02*
Y2733D01*
X3729Y2382D02*
X4040Y2693D01*
X3729Y1730D02*
X3780Y1679D01*
X3989Y3416D02*
X4040Y3467D01*
X4040Y2774D02*
Y2811D01*
X3830Y2752D02*
Y3137D01*
X3847Y1730D02*
X3898Y1679D01*
X3870Y2877D02*
X3922Y2929D01*
X2464Y3332D02*
X2519Y3277D01*
X3702Y2693D02*
X3922D01*
X2664Y3332D02*
X2717Y3385D01*
X1704Y3332D02*
X1768Y3396D01*
X3387Y3145D02*
X3457Y3215D01*
X3792Y3337D02*
X3922Y3467D01*
X3764Y2912D02*
X3792Y2940D01*
X3503Y3195D02*
Y3269D01*
X1904Y3332D02*
X2291D01*
X4111Y2456D02*
Y2976D01*
X387Y1803D02*
X407Y1823D01*
X1444D01*
X1505Y1762D01*
X2358D01*
X237Y1811D02*
X387Y1961D01*
X53Y1895D02*
Y2075D01*
X755Y2799D02*
X1544Y3588D01*
X662Y2799D02*
X755D01*
X24Y2161D02*
X662Y2799D01*
X24Y1901D02*
Y2161D01*
X-13Y1864D02*
X24Y1901D01*
X-52Y1864D02*
X-13D01*
X-113Y1803D02*
X-52Y1864D01*
X-163Y1884D02*
X-123Y1923D01*
Y2116D01*
X-163Y2156D02*
X-123Y2116D01*
X3398Y2217D02*
X3600Y2015D01*
Y1667D02*
Y2015D01*
Y1667D02*
X3640Y1627D01*
X3920D01*
X3950Y1657D01*
Y1832D01*
X3981Y1863D01*
Y2090D01*
X1607Y1852D02*
X2741D01*
X137Y1717D02*
X161Y1741D01*
X162D01*
X183Y1762D01*
Y1829D01*
X347Y1993D01*
X2927D01*
X2943Y2009D01*
X3451D01*
X3517Y1943D01*
Y1762D02*
Y1943D01*
X3500Y1745D02*
X3517Y1762D01*
X3295Y1745D02*
X3500D01*
X-113Y1642D02*
X-88Y1666D01*
X-87D01*
X-58Y1696D01*
Y1722D01*
X-38Y1741D01*
X-37D01*
X-18Y1761D01*
Y1787D01*
X73Y1878D01*
Y2032D01*
X868Y2827D01*
Y2868D01*
X1568Y3568D01*
X1625Y1790D02*
X1632Y1797D01*
X1545Y1790D02*
X1625D01*
X1490Y1845D02*
X1545Y1790D01*
X450Y1845D02*
X1490D01*
X-148Y1980D02*
Y2088D01*
X-225Y2165D02*
X-148Y2088D01*
X-303Y2165D02*
X-225D01*
X-316Y2152D02*
X-303Y2165D01*
X-316Y1769D02*
Y2152D01*
Y1769D02*
X-288Y1741D01*
X-288D01*
X-268Y1722D01*
Y1686D02*
Y1722D01*
X-287Y1666D02*
X-268Y1686D01*
X-288Y1666D02*
X-287D01*
X-313Y1642D02*
X-288Y1666D01*
X3989Y3296D02*
Y3416D01*
X3830Y3137D02*
X3989Y3296D01*
X2519Y3277D02*
X2545D01*
X2559Y3263D01*
Y3207D02*
Y3263D01*
Y3207D02*
X2580Y3186D01*
X3228D01*
X3369Y3327D01*
X3523D01*
X3580Y3270D01*
Y2754D02*
Y3270D01*
Y2754D02*
X3693Y2641D01*
X3958D01*
X3973Y2656D01*
Y2743D01*
X3957Y2759D02*
X3973Y2743D01*
X3894Y2759D02*
X3957D01*
X3870Y2783D02*
X3894Y2759D01*
X3870Y2783D02*
Y2877D01*
X4040Y2774D02*
X4091Y2723D01*
Y2640D02*
Y2723D01*
X3847Y2396D02*
X4091Y2640D01*
X3847Y1730D02*
Y2396D01*
X3729Y1730D02*
Y2382D01*
X644Y1779D02*
X650Y1784D01*
X1433D01*
X1486Y1731D01*
Y1679D02*
Y1731D01*
Y1679D02*
X1520Y1645D01*
X1867D01*
X1973Y1539D01*
X2286D01*
X2374Y1627D01*
X2626D01*
X-408Y1761D02*
X-388Y1741D01*
X-387D01*
X-368Y1722D01*
Y1686D02*
Y1722D01*
X-388Y1666D02*
X-368Y1686D01*
X-389Y1666D02*
X-388D01*
X-418Y1637D02*
X-389Y1666D01*
X-418Y1611D02*
Y1637D01*
X-438Y1591D02*
X-418Y1611D01*
X-439Y1591D02*
X-438D01*
X-458Y1572D02*
X-439Y1591D01*
X-458Y1523D02*
Y1572D01*
Y1523D02*
X-443Y1508D01*
X-258D01*
X733Y2820D02*
X1523Y3610D01*
X395Y2820D02*
X733D01*
X-121Y2304D02*
X395Y2820D01*
X-121Y2176D02*
Y2304D01*
Y2176D02*
X-103Y2158D01*
Y1885D02*
Y2158D01*
X533Y1629D02*
X667Y1762D01*
X1213D01*
X1463Y1512D01*
X2374D01*
X2469Y1607D01*
X2724D01*
X187Y1616D02*
X212Y1591D01*
X213D01*
X237Y1567D01*
Y1527D02*
Y1567D01*
Y1527D02*
X280Y1484D01*
X2390D02*
X2493Y1587D01*
X3020D01*
X-187Y1741D02*
X-163Y1717D01*
X-188Y1741D02*
X-187D01*
X-208Y1761D02*
X-188Y1741D01*
X-208Y1761D02*
Y2045D01*
X498Y1877D02*
X3385D01*
X453Y1922D02*
X498Y1877D01*
X381Y1922D02*
X453D01*
X282Y1823D02*
X381Y1922D01*
X282Y1761D02*
Y1823D01*
X262Y1741D02*
X282Y1761D01*
X261Y1741D02*
X262D01*
X237Y1717D02*
X261Y1741D01*
X1046Y2241D02*
Y2916D01*
X967Y2162D02*
X1046Y2241D01*
X257Y2162D02*
X967D01*
X117Y2022D02*
X257Y2162D01*
X117Y1846D02*
Y2022D01*
X92Y1821D02*
X117Y1846D01*
X92Y1771D02*
Y1821D01*
X63Y1741D02*
X92Y1771D01*
X62Y1741D02*
X63D01*
X42Y1722D02*
X62Y1741D01*
X42Y1696D02*
Y1722D01*
X13Y1666D02*
X42Y1696D01*
X12Y1666D02*
X13D01*
X-13Y1642D02*
X12Y1666D01*
X2517Y3145D02*
X3387D01*
X2266Y3396D02*
X2517Y3145D01*
X1768Y3396D02*
X2266D01*
X2291Y3332D02*
X2724Y2899D01*
X3207D01*
X3503Y3195D01*
X3792Y2940D02*
Y3337D01*
X2717Y3385D02*
X3560D01*
X3600Y3345D01*
Y2795D02*
Y3345D01*
Y2795D02*
X3702Y2693D01*
X3989Y3167D02*
X4040Y3218D01*
X3989Y2784D02*
Y3167D01*
Y2784D02*
X4040Y2733D01*
X2614Y3282D02*
X3267D01*
X3184Y3574D02*
Y3579D01*
X3118Y1606D02*
X3393D01*
X2943Y1431D02*
X3118Y1606D01*
X-168Y1471D02*
Y1572D01*
X-188Y1591D02*
X-168Y1572D01*
X-213Y1616D02*
X-188Y1591D01*
X756Y3648D02*
X862Y3754D01*
X4092Y1913D02*
Y2333D01*
X4083Y1904D02*
X4092Y1913D01*
X4083Y1730D02*
Y1904D01*
X-1128Y2010D02*
Y2692D01*
Y2010D02*
X-908Y1790D01*
Y1761D02*
Y1790D01*
Y1761D02*
X-888Y1741D01*
X-887D01*
X-863Y1717D01*
X1601Y3471D02*
X3068D01*
X1046Y2916D02*
X1601Y3471D01*
X1596Y3495D02*
X3074D01*
X1027Y2926D02*
X1596Y3495D01*
X1027Y2923D02*
Y2926D01*
X3068Y3471D02*
X3133Y3406D01*
X3407D01*
X3471Y3470D01*
Y3604D01*
X3510Y3643D01*
X3675D01*
X3782Y3750D01*
Y3914D01*
X3818Y3950D01*
X3979D01*
X4040Y4011D01*
X3074Y3495D02*
X3142Y3427D01*
X3397D01*
X3451Y3481D01*
X3384Y3449D02*
X3431Y3496D01*
X3151Y3449D02*
X3384D01*
X3078Y3522D02*
X3151Y3449D01*
X3101Y3548D02*
X3179Y3470D01*
X3375D01*
X3411Y3506D01*
X3119Y3568D02*
X3188Y3499D01*
X3344D02*
X3359Y3514D01*
X3188Y3499D02*
X3344D01*
X3451Y3481D02*
Y3617D01*
X3498Y3664D01*
X3659D01*
X3665Y3670D01*
X3670D01*
X3762Y3762D01*
Y4043D01*
X3793Y4074D01*
X3976D01*
X4038Y4136D01*
X1585Y3522D02*
X3078D01*
X3431Y3496D02*
Y3626D01*
X3491Y3686D01*
X3651D01*
X3742Y3777D01*
Y4148D01*
X3786Y4192D01*
X3976D01*
X4038Y4254D01*
X3411Y3506D02*
Y3634D01*
X1576Y3548D02*
X3101D01*
X1568Y3568D02*
X3119D01*
X3134Y3588D02*
X3197Y3525D01*
X3293D01*
X1544Y3588D02*
X3134D01*
X3153Y3610D02*
X3184Y3579D01*
Y3574D02*
X3252D01*
X1523Y3610D02*
X3153D01*
X3411Y3634D02*
X3488Y3711D01*
X3645D01*
X3722Y3788D01*
Y4216D01*
X3821Y4315D01*
X3965D01*
X4023Y4373D01*
X3293Y3525D02*
X3304Y3536D01*
Y3628D01*
X878Y3000D02*
X1512Y3634D01*
X3199D01*
X-863Y1504D02*
X-563D01*
D18*
X464Y3078D02*
Y3423D01*
X3663Y3121D02*
X3737Y3047D01*
X3663Y3121D02*
Y3408D01*
D19*
X-180Y3423D02*
X1144D01*
X1335Y3614D02*
Y3861D01*
X-692Y3869D02*
X-626D01*
X2595Y4078D02*
X2910D01*
X2280D02*
X2595D01*
X1960D02*
X2280D01*
X1650D02*
X1960D01*
X1335D02*
X1650D01*
X1020D02*
X1335D01*
X936D02*
X1020D01*
X280Y3760D02*
X392Y3648D01*
X862Y3754D02*
Y4002D01*
X-626Y3869D02*
X-180Y3423D01*
X1144D02*
X1335Y3614D01*
X756Y3648D02*
X861Y3747D01*
X392Y3648D02*
X756D01*
X862Y4002D02*
X936Y4078D01*
D22*
X4016Y1679D02*
D03*
X3922Y3349D02*
D03*
Y3467D02*
D03*
Y3585D02*
D03*
X3922Y2693D02*
D03*
Y2811D02*
D03*
Y2929D02*
D03*
X3898Y1679D02*
D03*
X4040Y3467D02*
D03*
X4040Y2811D02*
D03*
X3780Y1679D02*
D03*
X4040Y3349D02*
D03*
X4040Y2693D02*
D03*
X3111Y1797D02*
D03*
X2442D02*
D03*
X3922Y2031D02*
D03*
Y2267D02*
D03*
X4040Y2031D02*
D03*
X3922Y4018D02*
D03*
Y4254D02*
D03*
X4040Y4018D02*
D03*
X3229Y1679D02*
D03*
X3465Y1797D02*
D03*
X2560Y1679D02*
D03*
X2796Y1797D02*
D03*
X4040Y4254D02*
D03*
X3229Y1797D02*
D03*
X2560D02*
D03*
X3922Y2149D02*
D03*
Y2385D02*
D03*
X4040Y2149D02*
D03*
X3922Y4136D02*
D03*
Y4373D02*
D03*
X4040Y4136D02*
D03*
X3111Y1679D02*
D03*
X3347D02*
D03*
Y1797D02*
D03*
X2442Y1679D02*
D03*
X2678D02*
D03*
Y1797D02*
D03*
X4040Y2267D02*
D03*
X4134Y1797D02*
D03*
X3922Y3703D02*
D03*
X3922Y3047D02*
D03*
X4016Y1797D02*
D03*
X3898D02*
D03*
X3780D02*
D03*
X4040Y2929D02*
D03*
X4040Y3585D02*
D03*
D23*
X-920Y2900D02*
D03*
D24*
X337Y1779D02*
D03*
X287Y1704D02*
D03*
X-413D02*
D03*
X-463Y1779D02*
D03*
X-513Y1704D02*
D03*
X-613D02*
D03*
X-663Y1779D02*
D03*
X-713Y1704D02*
D03*
X-763Y1779D02*
D03*
X-913Y1704D02*
D03*
X-963Y1779D02*
D03*
X-1013Y1704D02*
D03*
X-1063Y1779D02*
D03*
X-563D02*
D03*
X-1163Y1629D02*
D03*
X-1113Y1554D02*
D03*
Y1704D02*
D03*
X37Y1629D02*
D03*
X87Y1554D02*
D03*
X37Y1779D02*
D03*
X87Y1704D02*
D03*
X287Y1554D02*
D03*
X337Y1629D02*
D03*
X-613Y1554D02*
D03*
X-663Y1629D02*
D03*
X-713Y1554D02*
D03*
X-763Y1629D02*
D03*
X-413Y1554D02*
D03*
X-463Y1629D02*
D03*
X-513Y1554D02*
D03*
X-563Y1629D02*
D03*
X-913Y1554D02*
D03*
X-963Y1629D02*
D03*
X-1013Y1554D02*
D03*
X-1063Y1629D02*
D03*
X437Y1779D02*
D03*
X387Y1704D02*
D03*
X237Y1779D02*
D03*
X187Y1704D02*
D03*
X137Y1779D02*
D03*
X-13Y1704D02*
D03*
X-63Y1779D02*
D03*
X-113Y1704D02*
D03*
X-163Y1779D02*
D03*
X-213Y1704D02*
D03*
X-263Y1779D02*
D03*
X-313Y1704D02*
D03*
X-363Y1779D02*
D03*
X-813Y1704D02*
D03*
X-863Y1779D02*
D03*
X487Y1554D02*
D03*
X437Y1629D02*
D03*
X387Y1554D02*
D03*
X237Y1629D02*
D03*
X187Y1554D02*
D03*
X137Y1629D02*
D03*
X-13Y1554D02*
D03*
X-63Y1629D02*
D03*
X-113Y1554D02*
D03*
X-213D02*
D03*
X-263Y1629D02*
D03*
X-313Y1554D02*
D03*
X-363Y1629D02*
D03*
X-813Y1554D02*
D03*
X-863Y1629D02*
D03*
D25*
X-1163Y1779D02*
D03*
X-163Y1629D02*
D03*
D26*
X802D02*
D03*
X-1478D02*
D03*
D27*
X487Y1704D02*
D03*
D28*
X1437Y1709D02*
D03*
X1491Y1597D02*
D03*
X1546Y1709D02*
D03*
X1600Y1597D02*
D03*
X1710D02*
D03*
X1764Y1709D02*
D03*
X1819Y1597D02*
D03*
D29*
X1655Y1709D02*
D03*
D30*
X1873D02*
D03*
D31*
X2147Y1653D02*
D03*
D32*
X1163D02*
D03*
D33*
X1904Y3332D02*
D03*
X1854Y3232D02*
D03*
X1704Y3332D02*
D03*
X2664D02*
D03*
X2614Y3232D02*
D03*
X2464Y3332D02*
D03*
X2564D02*
D03*
X1804D02*
D03*
X2514Y3232D02*
D03*
X1754D02*
D03*
X2714D02*
D03*
X1954D02*
D03*
D34*
X3465Y1679D02*
D03*
X2796D02*
D03*
X4040Y4373D02*
D03*
Y3047D02*
D03*
X4040Y3703D02*
D03*
X4134Y1679D02*
D03*
X4040Y2385D02*
D03*
D35*
X705Y4078D02*
D03*
X1335D02*
D03*
X1020D02*
D03*
X2280D02*
D03*
X1960D02*
D03*
X1650D02*
D03*
X-858Y4086D02*
D03*
X2910Y4078D02*
D03*
X2595D02*
D03*
D36*
X280Y3760D02*
D03*
Y3960D02*
D03*
X-160D02*
D03*
Y3760D02*
D03*
D37*
X705Y3861D02*
D03*
X1335D02*
D03*
X1020D02*
D03*
X2280D02*
D03*
X1960D02*
D03*
X1650D02*
D03*
X-692Y3869D02*
D03*
X-858D02*
D03*
X-692Y4086D02*
D03*
X2910Y3861D02*
D03*
X2595D02*
D03*
D38*
X705Y4365D02*
D03*
X1335D02*
D03*
X2280D02*
D03*
X1960D02*
D03*
X1650D02*
D03*
X2789Y2977D02*
D03*
X2029D02*
D03*
X1629D02*
D03*
X4210Y4103D02*
D03*
X2712Y1509D02*
D03*
X2527D02*
D03*
X4210Y2963D02*
D03*
Y2778D02*
D03*
X4210Y3619D02*
D03*
Y3434D02*
D03*
X3381Y1509D02*
D03*
X3196D02*
D03*
X4210Y2116D02*
D03*
X4050Y1509D02*
D03*
X3865D02*
D03*
X1020Y4365D02*
D03*
X2389Y2977D02*
D03*
X4210Y4288D02*
D03*
Y2301D02*
D03*
X-515Y4251D02*
D03*
X2910Y4365D02*
D03*
X2595D02*
D03*
D39*
X-1035Y4251D02*
D03*
D40*
X4184Y2501D02*
D03*
X464Y3078D02*
D03*
X-832Y1930D02*
D03*
X632Y2882D02*
D03*
X691Y2526D02*
D03*
X979Y1454D02*
D03*
X982Y1604D02*
D03*
X873Y2455D02*
D03*
X3183Y1961D02*
D03*
X845Y2211D02*
D03*
X-57D02*
D03*
Y1908D02*
D03*
X729Y2751D02*
D03*
Y3000D02*
D03*
X-163Y2196D02*
D03*
X2044Y2217D02*
D03*
X-363Y1950D02*
D03*
X-302Y2294D02*
D03*
X1585Y1830D02*
D03*
X413Y1882D02*
D03*
X-163Y1965D02*
D03*
X3830Y2752D02*
D03*
X3009Y1732D02*
D03*
X177Y1906D02*
D03*
X3423Y2107D02*
D03*
X-263Y2121D02*
D03*
X-408Y2125D02*
D03*
X-118Y1870D02*
D03*
X3060Y1627D02*
D03*
X-188Y2065D02*
D03*
X3457Y3215D02*
D03*
X3503Y3269D02*
D03*
X3764Y2912D02*
D03*
X3329Y3344D02*
D03*
X1504Y2743D02*
D03*
X3359Y3577D02*
D03*
X3310Y3634D02*
D03*
X3255Y3577D02*
D03*
X3200Y3635D02*
D03*
X3663Y3408D02*
D03*
X3737Y3047D02*
D03*
X3669Y3812D02*
D03*
X2995Y3700D02*
D03*
M02*
