%FSLAX23Y23*%
%MOIN*%
G70*
G01*
G75*
G04 Layer_Physical_Order=1*
%ADD10R,0.060X0.650*%
%ADD11R,1.000X0.320*%
%ADD12R,0.070X0.070*%
%ADD13R,0.063X0.071*%
%ADD14R,0.030X0.045*%
%ADD15R,0.090X0.170*%
%ADD16C,0.040*%
%ADD17C,0.010*%
%ADD18C,0.080*%
%ADD19C,0.150*%
%ADD20C,0.060*%
%ADD21C,0.050*%
%ADD22C,0.072*%
%ADD23C,0.070*%
%ADD24C,0.059*%
%ADD25C,0.059*%
%ADD26C,0.179*%
%ADD27R,0.059X0.059*%
%ADD28C,0.067*%
%ADD29C,0.067*%
%ADD30R,0.067X0.067*%
%ADD31C,0.187*%
%ADD32C,0.187*%
%ADD33C,0.060*%
%ADD34R,0.072X0.072*%
%ADD35R,0.113X0.113*%
%ADD36C,0.082*%
%ADD37C,0.113*%
%ADD38C,0.125*%
%ADD39C,0.129*%
%ADD40C,0.050*%
D10*
X-1050Y2900D02*
D03*
D11*
Y3380D02*
D03*
X-1045Y2425D02*
D03*
D12*
X-200Y3003D02*
D03*
Y2910D02*
D03*
X-920Y2800D02*
D03*
Y3000D02*
D03*
D13*
X1504Y2264D02*
D03*
X1614D02*
D03*
X-455Y2569D02*
D03*
X-345D02*
D03*
X1854Y2264D02*
D03*
X1744D02*
D03*
X1735Y1900D02*
D03*
X1625D02*
D03*
D14*
X-334Y2689D02*
D03*
X-466D02*
D03*
D15*
X140Y3050D02*
D03*
Y3405D02*
D03*
X3500Y3410D02*
D03*
Y3055D02*
D03*
D16*
X4110Y2969D02*
Y3765D01*
X4082Y2929D02*
X4110Y2957D01*
X4040Y3585D02*
X4080D01*
X3669Y3812D02*
X4061Y3814D01*
X434Y3701D02*
X2995Y3700D01*
X4040Y2929D02*
X4082D01*
X140Y3405D02*
X434Y3701D01*
X4080Y3585D02*
X4110Y3555D01*
X3717Y3703D02*
X3922D01*
X3663Y3408D02*
Y3649D01*
X3661Y3410D02*
X3663Y3408D01*
Y3649D02*
X3717Y3703D01*
X4061Y3814D02*
X4110Y3765D01*
D17*
Y2575D02*
Y2969D01*
Y2575D02*
X4184Y2501D01*
X-200Y3003D02*
X-160Y3043D01*
X632Y2585D02*
X691Y2526D01*
X632Y2585D02*
Y2882D01*
X-832Y1930D02*
X-813Y1911D01*
Y1704D02*
Y1911D01*
X989Y1444D02*
X2436D01*
X3922Y2385D02*
X3973Y2436D01*
X979Y1454D02*
X989Y1444D01*
X3295Y1627D02*
X3347Y1679D01*
X3060Y1627D02*
X3295D01*
X2391Y1510D02*
X2560Y1679D01*
X982Y1604D02*
X1073Y1513D01*
Y1510D02*
X2391D01*
X1073D02*
Y1513D01*
X1096Y1720D02*
X1268Y1548D01*
X666Y1493D02*
X893Y1720D01*
X-608Y1562D02*
X-539Y1493D01*
X2042Y1548D02*
X2147Y1653D01*
X-613Y1554D02*
X-552Y1493D01*
X893Y1720D02*
X1096D01*
X1546Y1791D02*
X1585Y1830D01*
X1018Y1808D02*
X1035Y1791D01*
X1546D01*
X487Y1554D02*
X579Y1646D01*
Y1829D01*
X1018Y1808D02*
Y1852D01*
X947Y1923D02*
X1018Y1852D01*
X673Y1923D02*
X947D01*
X579Y1829D02*
X673Y1923D01*
X670Y1950D02*
X2524D01*
X2678Y1797D01*
X487Y1704D02*
Y1767D01*
X670Y1950D01*
X631Y1970D02*
X2702D01*
X2993Y1679D02*
X3111D01*
X484Y1823D02*
X631Y1970D01*
X182Y1823D02*
X484D01*
X137Y1779D02*
X182Y1823D01*
X1070Y3413D02*
X2483D01*
X1804Y3004D02*
Y3332D01*
X2483Y3413D02*
X2564Y3332D01*
X1854Y2264D02*
Y2954D01*
X-608Y1647D02*
X-588Y1666D01*
X-645Y1647D02*
X-608D01*
X-663Y1629D02*
X-645Y1647D01*
X-763Y1629D02*
X-663D01*
X-302Y2294D02*
X712D01*
X873Y2455D01*
X-57Y2211D02*
X845D01*
X-57Y1908D02*
X-13Y1864D01*
Y1704D02*
Y1864D01*
X3278Y3277D02*
X3310D01*
X2528D02*
X3278D01*
X3500Y3055D02*
Y3087D01*
X1754Y3232D02*
Y3351D01*
X2514Y3232D02*
Y3263D01*
X2173Y3232D02*
X2514D01*
X1504Y2264D02*
Y2743D01*
X1504Y2743D01*
X-200Y2905D02*
Y2910D01*
X-205Y2905D02*
X-200D01*
X-210Y2900D02*
X-200Y2890D01*
X3083Y3590D02*
X3329Y3344D01*
X2989Y3861D02*
X3040D01*
X2910D02*
X2989D01*
X2595D02*
X2910D01*
X3083Y3610D02*
Y3818D01*
Y3590D02*
Y3610D01*
X1659Y3352D02*
X1720Y3413D01*
X3811Y2936D02*
X3922Y3047D01*
X4134Y1797D02*
Y2012D01*
X3981Y2325D02*
X4040Y2267D01*
X4112Y2195D01*
X1659Y3173D02*
X1804Y3028D01*
Y3004D02*
X1854Y2954D01*
X-345Y2678D02*
X-334Y2689D01*
X-539Y1493D02*
X667D01*
X-763Y1604D02*
Y1629D01*
Y1523D02*
Y1604D01*
X-613Y1554D02*
Y1579D01*
X-713Y1554D02*
X-613D01*
X-763Y1604D02*
X-713Y1554D01*
X-1478Y1629D02*
X-1357Y1508D01*
X-463Y1629D02*
X-413Y1579D01*
Y1554D02*
Y1579D01*
X-563Y1629D02*
X-463D01*
X-563Y1604D02*
Y1629D01*
X-513Y1554D02*
X-413D01*
X-563Y1604D02*
X-513Y1554D01*
X-963Y1629D02*
X-913Y1579D01*
Y1554D02*
Y1579D01*
X-1063Y1629D02*
X-963D01*
X-1063Y1604D02*
Y1629D01*
X-1013Y1554D02*
X-913D01*
X-1063Y1604D02*
X-1013Y1554D01*
X3183Y1961D02*
X3347Y1797D01*
X3770Y4373D02*
X3922D01*
X3200Y3635D02*
Y3803D01*
X729Y2751D02*
Y3000D01*
X3666Y4136D02*
X3922D01*
X3310Y3634D02*
Y3780D01*
X2006Y2179D02*
X2044Y2217D01*
X-163Y2196D02*
X-108Y2251D01*
X3840Y2230D02*
X3922Y2149D01*
X-263Y2121D02*
X-242Y2142D01*
X3009Y1732D02*
Y1870D01*
X-313Y1704D02*
Y1879D01*
X3229Y1797D02*
X3288Y1738D01*
X-363Y1950D02*
X-207Y2105D01*
X3711Y4254D02*
X3922D01*
X3255Y3577D02*
Y3798D01*
X-100Y1629D02*
X-63D01*
X-118Y1761D02*
Y1870D01*
X3622Y4018D02*
X3922D01*
X3359Y3577D02*
Y3755D01*
X3989Y1979D02*
X4040Y2031D01*
X-188Y2065D02*
X3766D01*
X1954Y2267D02*
X3922D01*
X-408Y2125D02*
X-262Y2271D01*
X3845Y2107D02*
X3922Y2031D01*
X3423Y2107D02*
X3845D01*
X121Y1962D02*
X177Y1906D01*
X-263Y1629D02*
Y1717D01*
X312Y1983D02*
X413Y1882D01*
X-163Y1965D02*
X-145Y1983D01*
X2876Y2032D02*
X3111Y1797D01*
X-363Y1629D02*
Y1717D01*
X3708Y1607D02*
X3780Y1679D01*
X1735Y1738D02*
Y1900D01*
X1764Y1709D02*
X1904Y1848D01*
X1735Y1738D02*
X1764Y1709D01*
X3981Y2752D02*
X4040Y2811D01*
X3830Y2752D02*
X3981D01*
X3844Y1624D02*
X3898Y1679D01*
X1625Y1837D02*
Y1900D01*
X1710Y1597D02*
Y1752D01*
Y1597D02*
X1766Y1653D01*
X3922Y2811D02*
X3977Y2866D01*
X2614Y3232D02*
X2673Y3173D01*
X3922Y3585D02*
X3973Y3534D01*
X3457Y3215D02*
X3583D01*
X1854Y3232D02*
X1990Y3096D01*
X3082Y2912D02*
X3764D01*
X3688Y3349D02*
X3922D01*
X3503Y3269D02*
X3608D01*
X-466Y2689D02*
X-455Y2678D01*
X2514Y3263D02*
X2528Y3277D01*
X3310D02*
X3500Y3087D01*
X2702Y1970D02*
X2993Y1679D01*
X-108Y2251D02*
X865D01*
X937Y2179D01*
X2006D01*
X-207Y2105D02*
X2351D01*
X2417Y2171D01*
X3818D01*
X3892Y2097D01*
X4060D01*
X4092Y2065D01*
Y1984D02*
Y2065D01*
X4051Y1943D02*
X4092Y1984D01*
X3824Y1943D02*
X4051D01*
X3619Y1738D02*
X3824Y1943D01*
X3288Y1738D02*
X3619D01*
X-145Y1983D02*
X312D01*
X3977Y2866D02*
Y3083D01*
X3944Y3116D02*
X3977Y3083D01*
X3720Y3116D02*
X3944D01*
X3540Y2936D02*
X3720Y3116D01*
X3176Y2936D02*
X3540D01*
X2939Y3173D02*
X3176Y2936D01*
X2673Y3173D02*
X2939D01*
X-313Y1879D02*
X-186Y2005D01*
X397D01*
X411Y1991D01*
X2888D01*
X3009Y1870D01*
X4112Y2034D02*
X4134Y2012D01*
X4112Y2034D02*
Y2195D01*
X-263Y1717D02*
X-238Y1741D01*
X-237D01*
X-213Y1766D01*
Y1835D01*
X-86Y1962D01*
X121D01*
X-387Y1741D02*
X-363Y1717D01*
X-388Y1741D02*
X-387D01*
X-408Y1761D02*
X-388Y1741D01*
X-408Y1761D02*
Y1840D01*
X-223Y2025D01*
X-155D01*
X-148Y2032D01*
X2876D01*
X2190Y2230D02*
X3840D01*
X2102Y2142D02*
X2190Y2230D01*
X-242Y2142D02*
X2102D01*
X1901Y2213D02*
X1954Y2267D01*
X1020Y2213D02*
X1901D01*
X962Y2271D02*
X1020Y2213D01*
X-262Y2271D02*
X962D01*
X-138Y1741D02*
X-118Y1761D01*
X-139Y1741D02*
X-138D01*
X-158Y1722D02*
X-139Y1741D01*
X-158Y1686D02*
Y1722D01*
Y1686D02*
X-138Y1666D01*
X-137D01*
X-100Y1629D01*
X3766Y2065D02*
X3852Y1979D01*
X3989D01*
X1659Y3173D02*
Y3352D01*
X3973Y3317D02*
Y3534D01*
X3920Y3264D02*
X3973Y3317D01*
X3632Y3264D02*
X3920D01*
X3583Y3215D02*
X3632Y3264D01*
X3608Y3269D02*
X3688Y3349D01*
X2898Y3096D02*
X3082Y2912D01*
X1990Y3096D02*
X2898D01*
X3040Y3861D02*
X3083Y3818D01*
X1904Y1848D02*
X2586D01*
X2611Y1823D01*
Y1762D02*
Y1823D01*
Y1762D02*
X2628Y1745D01*
X2844D01*
X3002Y1587D01*
X3080D01*
X3100Y1607D01*
X3708D01*
X3785Y1624D02*
X3844D01*
X3748Y1587D02*
X3785Y1624D01*
X3120Y1587D02*
X3748D01*
X3100Y1567D02*
X3120Y1587D01*
X2920Y1567D02*
X3100D01*
X2900Y1587D02*
X2920Y1567D01*
X2680Y1587D02*
X2900D01*
X2618Y1649D02*
X2680Y1587D01*
X2618Y1649D02*
Y1703D01*
X2591Y1730D02*
X2618Y1703D01*
X2256Y1730D02*
X2591D01*
X2224Y1762D02*
X2256Y1730D01*
X2043Y1762D02*
X2224D01*
X1934Y1653D02*
X2043Y1762D01*
X1766Y1653D02*
X1934D01*
X-588Y1666D02*
X-587D01*
X-568Y1686D01*
Y1722D01*
X-588Y1741D02*
X-568Y1722D01*
X-588Y1741D02*
X-588D01*
X-608Y1761D02*
X-588Y1741D01*
X-608Y1761D02*
Y2100D01*
X-373Y2335D01*
X-8D01*
X1070Y3413D01*
X3973Y2436D02*
X4240D01*
X4288Y2388D01*
Y1642D02*
Y2388D01*
X4233Y1587D02*
X4288Y1642D01*
X3814Y1587D02*
X4233D01*
X3658Y1431D02*
X3814Y1587D01*
X2449Y1431D02*
X3658D01*
X2436Y1444D02*
X2449Y1431D01*
X1268Y1548D02*
X2042D01*
X-778Y1508D02*
X-763Y1523D01*
X-1357Y1508D02*
X-778D01*
X3811Y2803D02*
Y2936D01*
X3790Y2782D02*
X3811Y2803D01*
X3790Y2435D02*
Y2782D01*
Y2435D02*
X3900Y2325D01*
X3981D01*
X2028Y3377D02*
X2173Y3232D01*
X1780Y3377D02*
X2028D01*
X1754Y3351D02*
X1780Y3377D01*
X-210Y2900D02*
X-205Y2905D01*
X3359Y3755D02*
X3622Y4018D01*
X3310Y3780D02*
X3666Y4136D01*
X3255Y3798D02*
X3711Y4254D01*
X3200Y3803D02*
X3770Y4373D01*
X1625Y1837D02*
X1710Y1752D01*
X-552Y1493D02*
X666D01*
X-550Y4502D02*
Y4442D01*
X-520D01*
X-510Y4452D01*
Y4462D01*
X-520Y4472D01*
X-550D01*
X-520D01*
X-510Y4482D01*
Y4492D01*
X-520Y4502D01*
X-550D01*
X-490Y4482D02*
Y4442D01*
Y4462D01*
X-480Y4472D01*
X-470Y4482D01*
X-460D01*
X-400Y4442D02*
X-420D01*
X-430Y4452D01*
Y4472D01*
X-420Y4482D01*
X-400D01*
X-390Y4472D01*
Y4462D01*
X-430D01*
X-360Y4482D02*
X-340D01*
X-330Y4472D01*
Y4442D01*
X-360D01*
X-370Y4452D01*
X-360Y4462D01*
X-330D01*
X-310Y4442D02*
Y4502D01*
Y4462D02*
X-280Y4482D01*
X-310Y4462D02*
X-280Y4442D01*
X-240D02*
X-220D01*
X-210Y4452D01*
Y4472D01*
X-220Y4482D01*
X-240D01*
X-250Y4472D01*
Y4452D01*
X-240Y4442D01*
X-190Y4482D02*
Y4452D01*
X-180Y4442D01*
X-150D01*
Y4482D01*
X-120Y4492D02*
Y4482D01*
X-130D01*
X-110D01*
X-120D01*
Y4452D01*
X-110Y4442D01*
X-20Y4502D02*
Y4442D01*
X10D01*
X20Y4452D01*
Y4462D01*
X10Y4472D01*
X-20D01*
X10D01*
X20Y4482D01*
Y4492D01*
X10Y4502D01*
X-20D01*
X50Y4442D02*
X70D01*
X80Y4452D01*
Y4472D01*
X70Y4482D01*
X50D01*
X40Y4472D01*
Y4452D01*
X50Y4442D01*
X110Y4482D02*
X130D01*
X140Y4472D01*
Y4442D01*
X110D01*
X100Y4452D01*
X110Y4462D01*
X140D01*
X160Y4482D02*
Y4442D01*
Y4462D01*
X170Y4472D01*
X180Y4482D01*
X190D01*
X260Y4502D02*
Y4442D01*
X230D01*
X220Y4452D01*
Y4472D01*
X230Y4482D01*
X260D01*
X340D02*
X360Y4442D01*
X380Y4482D01*
X440Y4442D02*
X400D01*
X440Y4482D01*
Y4492D01*
X430Y4502D01*
X410D01*
X400Y4492D01*
X460Y4442D02*
Y4452D01*
X470D01*
Y4442D01*
X460D01*
X510Y4502D02*
X550D01*
Y4492D01*
X510Y4452D01*
Y4442D01*
D18*
X-200Y3003D02*
X-153Y3050D01*
X436D02*
X464Y3078D01*
X140Y3050D02*
X436D01*
X-153D02*
X140D01*
X-221Y2689D02*
X140Y3050D01*
X-334Y2689D02*
X-221D01*
X-299Y3405D02*
X140D01*
X-920Y3000D02*
X-581D01*
X3500Y3055D02*
X3639Y3194D01*
X4040Y3047D02*
Y3132D01*
X2973Y3582D02*
X3278Y3277D01*
X3500Y3055D01*
X-379Y2900D02*
X-210D01*
X-920D02*
X-379D01*
Y3010D01*
X-1050Y2900D02*
X-920D01*
X3500Y3410D02*
X3661D01*
X3737Y3047D02*
X3922D01*
X-345Y2569D02*
Y2678D01*
X-455Y2569D02*
Y2678D01*
X-809Y2689D02*
X-466D01*
X-920Y2800D02*
X-809Y2689D01*
X1021Y3582D02*
X2973D01*
X3639Y3194D02*
X3978D01*
X4040Y3132D01*
X-168Y3221D02*
X660D01*
X1021Y3582D01*
X-379Y3010D02*
X-168Y3221D01*
X-379Y3202D02*
Y3325D01*
X-581Y3000D02*
X-379Y3202D01*
Y3325D02*
X-299Y3405D01*
D19*
X-286Y4086D02*
X-160Y3960D01*
X-692Y4086D02*
X-286D01*
X-160Y3760D02*
X140Y3460D01*
Y3405D02*
Y3460D01*
X2595Y3861D02*
X2910D01*
X2280D02*
X2595D01*
X1960D02*
X2280D01*
X1650D02*
X1960D01*
X1335D02*
X1650D01*
X1020D02*
X1335D01*
X705D02*
X1020D01*
X398Y4078D02*
X705D01*
X280Y3960D02*
X398Y4078D01*
D20*
X2989Y3861D02*
X3065Y3785D01*
Y3628D02*
X3083Y3610D01*
X3283Y3410D01*
X3500D01*
X2910Y3861D02*
X2989D01*
X3065Y3628D02*
Y3785D01*
D21*
X1614Y2264D02*
X1744D01*
D22*
X4016Y1679D02*
D03*
X3922Y3349D02*
D03*
Y3467D02*
D03*
Y3585D02*
D03*
X3922Y2693D02*
D03*
Y2811D02*
D03*
Y2929D02*
D03*
X3898Y1679D02*
D03*
X4040Y3467D02*
D03*
X4040Y2811D02*
D03*
X3780Y1679D02*
D03*
X4040Y3349D02*
D03*
X4040Y2693D02*
D03*
X3111Y1797D02*
D03*
X2442D02*
D03*
X3922Y2031D02*
D03*
Y2267D02*
D03*
X4040Y2031D02*
D03*
X3922Y4018D02*
D03*
Y4254D02*
D03*
X4040Y4018D02*
D03*
X3229Y1679D02*
D03*
X3465Y1797D02*
D03*
X2560Y1679D02*
D03*
X2796Y1797D02*
D03*
X4040Y4254D02*
D03*
X3229Y1797D02*
D03*
X2560D02*
D03*
X3922Y2149D02*
D03*
Y2385D02*
D03*
X4040Y2149D02*
D03*
X3922Y4136D02*
D03*
Y4373D02*
D03*
X4040Y4136D02*
D03*
X3111Y1679D02*
D03*
X3347D02*
D03*
Y1797D02*
D03*
X2442Y1679D02*
D03*
X2678D02*
D03*
Y1797D02*
D03*
X4040Y2267D02*
D03*
X4134Y1797D02*
D03*
X3922Y3703D02*
D03*
X3922Y3047D02*
D03*
X4016Y1797D02*
D03*
X3898D02*
D03*
X3780D02*
D03*
X4040Y2929D02*
D03*
X4040Y3585D02*
D03*
D23*
X-920Y2900D02*
D03*
D24*
X337Y1779D02*
D03*
X287Y1704D02*
D03*
X-413D02*
D03*
X-463Y1779D02*
D03*
X-513Y1704D02*
D03*
X-613D02*
D03*
X-663Y1779D02*
D03*
X-713Y1704D02*
D03*
X-763Y1779D02*
D03*
X-913Y1704D02*
D03*
X-963Y1779D02*
D03*
X-1013Y1704D02*
D03*
X-1063Y1779D02*
D03*
X-563D02*
D03*
X-1163Y1629D02*
D03*
X-1113Y1554D02*
D03*
Y1704D02*
D03*
X37Y1629D02*
D03*
X87Y1554D02*
D03*
X37Y1779D02*
D03*
X87Y1704D02*
D03*
X287Y1554D02*
D03*
X337Y1629D02*
D03*
X-613Y1554D02*
D03*
X-663Y1629D02*
D03*
X-713Y1554D02*
D03*
X-763Y1629D02*
D03*
X-413Y1554D02*
D03*
X-463Y1629D02*
D03*
X-513Y1554D02*
D03*
X-563Y1629D02*
D03*
X-913Y1554D02*
D03*
X-963Y1629D02*
D03*
X-1013Y1554D02*
D03*
X-1063Y1629D02*
D03*
X437Y1779D02*
D03*
X387Y1704D02*
D03*
X237Y1779D02*
D03*
X187Y1704D02*
D03*
X137Y1779D02*
D03*
X-13Y1704D02*
D03*
X-63Y1779D02*
D03*
X-113Y1704D02*
D03*
X-163Y1779D02*
D03*
X-213Y1704D02*
D03*
X-263Y1779D02*
D03*
X-313Y1704D02*
D03*
X-363Y1779D02*
D03*
X-813Y1704D02*
D03*
X-863Y1779D02*
D03*
X487Y1554D02*
D03*
X437Y1629D02*
D03*
X387Y1554D02*
D03*
X237Y1629D02*
D03*
X187Y1554D02*
D03*
X137Y1629D02*
D03*
X-13Y1554D02*
D03*
X-63Y1629D02*
D03*
X-113Y1554D02*
D03*
X-213D02*
D03*
X-263Y1629D02*
D03*
X-313Y1554D02*
D03*
X-363Y1629D02*
D03*
X-813Y1554D02*
D03*
X-863Y1629D02*
D03*
D25*
X-1163Y1779D02*
D03*
X-163Y1629D02*
D03*
D26*
X802D02*
D03*
X-1478D02*
D03*
D27*
X487Y1704D02*
D03*
D28*
X1437Y1709D02*
D03*
X1491Y1597D02*
D03*
X1546Y1709D02*
D03*
X1600Y1597D02*
D03*
X1710D02*
D03*
X1764Y1709D02*
D03*
X1819Y1597D02*
D03*
D29*
X1655Y1709D02*
D03*
D30*
X1873D02*
D03*
D31*
X2147Y1653D02*
D03*
D32*
X1163D02*
D03*
D33*
X1904Y3332D02*
D03*
X1854Y3232D02*
D03*
X1704Y3332D02*
D03*
X2664D02*
D03*
X2614Y3232D02*
D03*
X2464Y3332D02*
D03*
X2564D02*
D03*
X1804D02*
D03*
X2514Y3232D02*
D03*
X1754D02*
D03*
X2714D02*
D03*
X1954D02*
D03*
D34*
X3465Y1679D02*
D03*
X2796D02*
D03*
X4040Y4373D02*
D03*
Y3047D02*
D03*
X4040Y3703D02*
D03*
X4134Y1679D02*
D03*
X4040Y2385D02*
D03*
D35*
X705Y4078D02*
D03*
X1335D02*
D03*
X1020D02*
D03*
X2280D02*
D03*
X1960D02*
D03*
X1650D02*
D03*
X-858Y4086D02*
D03*
X2910Y4078D02*
D03*
X2595D02*
D03*
D36*
X280Y3760D02*
D03*
Y3960D02*
D03*
X-160D02*
D03*
Y3760D02*
D03*
D37*
X705Y3861D02*
D03*
X1335D02*
D03*
X1020D02*
D03*
X2280D02*
D03*
X1960D02*
D03*
X1650D02*
D03*
X-692Y3869D02*
D03*
X-858D02*
D03*
X-692Y4086D02*
D03*
X2910Y3861D02*
D03*
X2595D02*
D03*
D38*
X705Y4365D02*
D03*
X1335D02*
D03*
X2280D02*
D03*
X1960D02*
D03*
X1650D02*
D03*
X2789Y2977D02*
D03*
X2029D02*
D03*
X1629D02*
D03*
X4210Y4103D02*
D03*
X2712Y1509D02*
D03*
X2527D02*
D03*
X4210Y2963D02*
D03*
Y2778D02*
D03*
X4210Y3619D02*
D03*
Y3434D02*
D03*
X3381Y1509D02*
D03*
X3196D02*
D03*
X4210Y2116D02*
D03*
X4050Y1509D02*
D03*
X3865D02*
D03*
X1020Y4365D02*
D03*
X2389Y2977D02*
D03*
X4210Y4288D02*
D03*
Y2301D02*
D03*
X-515Y4251D02*
D03*
X2910Y4365D02*
D03*
X2595D02*
D03*
D39*
X-1035Y4251D02*
D03*
D40*
X4184Y2501D02*
D03*
X464Y3078D02*
D03*
X-832Y1930D02*
D03*
X632Y2882D02*
D03*
X691Y2526D02*
D03*
X979Y1454D02*
D03*
X982Y1604D02*
D03*
X873Y2455D02*
D03*
X3183Y1961D02*
D03*
X845Y2211D02*
D03*
X-57D02*
D03*
Y1908D02*
D03*
X729Y2751D02*
D03*
Y3000D02*
D03*
X-163Y2196D02*
D03*
X2044Y2217D02*
D03*
X-363Y1950D02*
D03*
X-302Y2294D02*
D03*
X1585Y1830D02*
D03*
X413Y1882D02*
D03*
X-163Y1965D02*
D03*
X3830Y2752D02*
D03*
X3009Y1732D02*
D03*
X177Y1906D02*
D03*
X3423Y2107D02*
D03*
X-263Y2121D02*
D03*
X-408Y2125D02*
D03*
X-118Y1870D02*
D03*
X3060Y1627D02*
D03*
X-188Y2065D02*
D03*
X3457Y3215D02*
D03*
X3503Y3269D02*
D03*
X3764Y2912D02*
D03*
X3329Y3344D02*
D03*
X1504Y2743D02*
D03*
X3359Y3577D02*
D03*
X3310Y3634D02*
D03*
X3255Y3577D02*
D03*
X3200Y3635D02*
D03*
X3663Y3408D02*
D03*
X3737Y3047D02*
D03*
X3669Y3812D02*
D03*
X2995Y3700D02*
D03*
M02*
